<?xml version="1.0" standalone="no"?><!DOCTYPE svg PUBLIC "-//W3C//DTD SVG 1.1//EN" "http://www.w3.org/Graphics/SVG/1.1/DTD/svg11.dtd"><svg t="1547107226297" class="icon" style="" viewBox="0 0 1024 1024" version="1.1" xmlns="http://www.w3.org/2000/svg" p-id="22122" xmlns:xlink="http://www.w3.org/1999/xlink" width="200" height="200"><defs><style type="text/css"></style></defs><path d="M512 942.933333c-55.466667 0-298.666667-194.133333-403.2-334.933333-85.333333-113.066667-72.533333-275.2 25.6-373.333333 68.266667-68.266667 172.8-83.2 258.133333-38.4l119.466667 64 119.466667-64c85.333333-44.8 189.866667-29.866667 258.133333 38.4 87.466667 87.466667 108.8 219.733333 53.333333 328.533333-4.266667 10.666667-17.066667 14.933333-27.733333 10.666667-10.666667-4.266667-14.933333-17.066667-10.666667-27.733334 46.933333-93.866667 27.733333-206.933333-46.933333-279.466666-55.466667-55.466667-138.666667-68.266667-206.933333-32L512 307.2 373.333333 234.666667c-68.266667-36.266667-151.466667-23.466667-206.933333 32-85.333333 85.333333-93.866667 221.866667-23.466667 317.866666 106.666667 145.066667 332.8 313.6 369.066667 317.866667 17.066667-2.133333 96-51.2 194.133333-136.533333 8.533333-8.533333 21.333333-6.4 29.866667 2.133333 8.533333 8.533333 6.4 21.333333-2.133333 29.866667-57.6 49.066667-181.333333 145.066667-221.866667 145.066666z" fill="#ffffff" p-id="22123"></path><path d="M940.8 669.866667H714.666667c-12.8 0-21.333333-8.533333-21.333334-21.333334s8.533333-21.333333 21.333334-21.333333h226.133333c12.8 0 21.333333 8.533333 21.333333 21.333333s-8.533333 21.333333-21.333333 21.333334z" fill="#ffffff" p-id="22124"></path><path d="M827.733333 782.933333c-12.8 0-21.333333-8.533333-21.333333-21.333333V535.466667c0-12.8 8.533333-21.333333 21.333333-21.333334s21.333333 8.533333 21.333334 21.333334v226.133333c0 10.666667-8.533333 21.333333-21.333334 21.333333zM827.733333 443.733333c-12.8 0-21.333333-8.533333-21.333333-21.333333 0-51.2-40.533333-91.733333-91.733333-91.733333-12.8 0-21.333333-8.533333-21.333334-21.333334s8.533333-21.333333 21.333334-21.333333c74.666667 0 134.4 59.733333 134.4 134.4 0 10.666667-8.533333 21.333333-21.333334 21.333333z" fill="#ffffff" p-id="22125"></path></svg>