<?xml version="1.0" standalone="no"?><!DOCTYPE svg PUBLIC "-//W3C//DTD SVG 1.1//EN" "http://www.w3.org/Graphics/SVG/1.1/DTD/svg11.dtd"><svg t="1547107449504" class="icon" style="" viewBox="0 0 1024 1024" version="1.1" xmlns="http://www.w3.org/2000/svg" p-id="36236" xmlns:xlink="http://www.w3.org/1999/xlink" width="200" height="200"><defs><style type="text/css"></style></defs><path d="M829.1 507.1c19.4-32.5 30.6-70.2 30.6-110.4 0-121.3-101.1-219.5-225.8-219.5-57.9 0-110.5 21.2-150.5 55.9-39.8-34.9-92.6-56-150.5-56-124.7 0-225.8 98.2-225.8 219.5 0 44.6 13.7 86 37.1 120.6h-0.4C222 645.3 331.6 753 462 830.9c6.5 3 13.7 4.6 21.3 4.6s14.8-1.7 21.3-4.6c29.6-17.7 58.1-37 85.4-57.5 33.1 38.1 81.9 62.2 136.3 62.2 99.6 0 180.3-80.7 180.3-180.3 0.2-61.4-30.5-115.7-77.5-148.2zM726.6 788.6c-73.6 0-133.3-59.6-133.3-133.3 0-73.6 59.6-133.3 133.3-133.3 73.6 0 133.3 59.6 133.3 133.3-0.1 73.7-59.8 133.3-133.3 133.3z m35.2-203.7l-35.2 35.2-35.2-35.2-35.2 35.2 35.2 35.2-35.2 35.2 35.2 35.2 35.2-35.2 35.2 35.2 35.2-35.2-35.2-35.2 35.2-35.2-35.2-35.2z" p-id="36237" fill="#ffffff"></path></svg>