<?xml version="1.0" standalone="no"?><!DOCTYPE svg PUBLIC "-//W3C//DTD SVG 1.1//EN" "http://www.w3.org/Graphics/SVG/1.1/DTD/svg11.dtd"><svg t="1547023405224" class="icon" style="" viewBox="0 0 1024 1024" version="1.1" xmlns="http://www.w3.org/2000/svg" p-id="4616" xmlns:xlink="http://www.w3.org/1999/xlink" width="200" height="200"><defs><style type="text/css"></style></defs><path d="M484.510926 950.321954l-382.245797-382.543579c-39.957037-39.956014-68.938092-87.004563-82.095763-138.408303-13.120832-48.997947-12.56313-101.537558 4.64888-154.908092 15.623839-46.493917 42.976814-88.636736 77.446883-122.54808 35.021631-34.208103 78.275761-60.762899 124.750235-75.5333 54.745858-17.512862 108.930945-18.029632 159.776983-4.652973 45.203528 12.343119 87.582731 34.745339 124.8321 65.953108 37.7293-31.207769 80.425727-53.609988 125.271098-65.656349 50.927903-13.433964 105.071034-13.156648 159.817915 4.356214 47.067992 14.769378 90.245374 41.325198 124.751259 75.5333 34.745339 34.19173 61.58052 76.05314 77.164451 123.105782l0 0c17.773805 52.812833 18.327414 105.352443 5.487991 154.35039-13.954827 51.721988-42.696428 98.452289-82.652442 138.408303l-1.62808 2.206248L538.976398 950.321954C523.910261 965.372741 499.578086 965.372741 484.510926 950.321954L484.510926 950.321954 484.510926 950.321954z" p-id="4617" fill="#e6e6e6"></path></svg>