<?xml version="1.0" standalone="no"?><!DOCTYPE svg PUBLIC "-//W3C//DTD SVG 1.1//EN" "http://www.w3.org/Graphics/SVG/1.1/DTD/svg11.dtd"><svg t="1546927587614" class="icon" style="" viewBox="0 0 1027 1024" version="1.1" xmlns="http://www.w3.org/2000/svg" p-id="1128" xmlns:xlink="http://www.w3.org/1999/xlink" width="200.5859375" height="200"><defs><style type="text/css"></style></defs><path d="M996.072727 479.418182c27.927273-23.272727 37.236364-55.854545 27.927273-88.436364-9.309091-27.927273-37.236364-51.2-74.472727-55.854545l-223.418182-32.581818c-9.309091 0-32.581818-13.963636-37.236364-27.927273l-102.4-204.8C572.509091 37.236364 544.581818 18.618182 512 18.618182c-32.581818 0-60.509091 18.618182-74.472727 51.2L335.127273 279.272727c-4.654545 9.309091-23.272727 23.272727-32.581818 23.272728l-228.072728 32.581818C41.890909 339.781818 13.963636 363.054545 4.654545 390.981818c-9.309091 27.927273 0 60.509091 27.927273 88.436364l162.909091 158.254545c9.309091 9.309091 13.963636 32.581818 13.963636 41.890909l-37.236363 223.418182c-4.654545 37.236364 4.654545 60.509091 18.618182 74.472727 23.272727 27.927273 65.163636 32.581818 102.4 13.963637l200.145454-107.054546c9.309091-4.654545 37.236364-4.654545 46.545455 0l200.145454 107.054546c13.963636 9.309091 32.581818 13.963636 46.545455 13.963636 23.272727 0 41.890909-9.309091 60.509091-27.927273 9.309091-13.963636 23.272727-37.236364 18.618182-74.472727l-37.236364-223.418182c0-9.309091 4.654545-32.581818 13.963636-41.890909l153.6-158.254545z" fill="#cdcdcd" p-id="1129"></path></svg>