<?xml version="1.0" standalone="no"?><!DOCTYPE svg PUBLIC "-//W3C//DTD SVG 1.1//EN" "http://www.w3.org/Graphics/SVG/1.1/DTD/svg11.dtd"><svg t="1547775440167" class="icon" style="" viewBox="0 0 1024 1024" version="1.1" xmlns="http://www.w3.org/2000/svg" p-id="5414" xmlns:xlink="http://www.w3.org/1999/xlink" width="200" height="200"><defs><style type="text/css"></style></defs><path d="M128.53084 399.596977c0-41.382503 33.624818-74.93569 74.934666-74.93569 41.382503 0 74.93569 33.571606 74.93569 74.93569l0 487.077378c0 41.383526-33.624818 74.93569-74.93569 74.93569-41.381479 0-74.934666-33.571606-74.934666-74.93569L128.53084 399.596977z" p-id="5415" fill="#bfbfbf"></path><path d="M390.802172 230.993978l-0.420579 0c0.275269 3.083222 0.420579 6.210445 0.420579 9.366322 0 47.164183-31.686676 86.926792-74.93569 99.157347l0 41.345664c0 0.01842 0 0.026606 0 0.045025l0 505.766019c0 41.364083 33.589003 74.93569 75.008344 74.93569l274.456862 0c82.71077 0 161.140027-66.145489 175.153182-147.729599l52.286854-304.560484c17.507746-102.038978-52.084239-184.65765-155.449421-184.65765L555.912627 324.662311c13.483082-10.236132 22.228257-26.41665 22.228257-44.620243L578.140884 156.205645c0-51.948139-41.932018-93.815689-93.669356-93.815689-51.626821 0-93.668333 42.004673-93.668333 93.815689L390.803195 230.993978z" p-id="5416" fill="#bfbfbf"></path></svg>